<svg width="110" height="19" viewBox="0 0 110 19" fill="none" xmlns="http://www.w3.org/2000/svg">
<path fill-rule="evenodd" clip-rule="evenodd" d="M78.2829 11.7772L81.1267 2.40259L83.9709 11.7772H78.2829ZM80.4682 0.926636L75.1598 18.2871H76.3065L77.8406 13.2152H84.4135L85.9488 18.2871H87.1314L81.8227 0.926636H80.4682ZM67.8649 2.36531H75.3578V0.926636H66.763V18.2871H67.8649V10.2641H75.0604V8.82547H67.8649V2.36531ZM96.2505 9.8055H94.9327L98.0384 15.1501C97.0994 16.3405 95.8268 17.0221 94.3912 17.0221C91.3932 17.0221 89.0643 14.0339 89.0643 9.6071C89.0643 5.18025 91.3932 2.19208 94.3912 2.19208C97.3795 2.19208 99.7088 5.18025 99.7088 9.6071C99.7088 11.3556 99.3477 12.8557 98.7336 14.0461L96.2505 9.8055ZM100.864 9.60697C100.864 4.39871 98.0825 0.728333 94.3906 0.728333C90.6978 0.728333 87.9173 4.39871 87.9173 9.60697C87.9173 14.8147 90.6978 18.485 94.3906 18.485C96.0876 18.485 97.6044 17.7164 98.7329 16.3403L99.8885 18.2872H101.189L99.4552 15.2985C100.358 13.7983 100.864 11.8514 100.864 9.60697ZM107.211 11.839L106.127 11.6655C104.818 11.4549 104.195 10.8719 104.195 9.78016C104.195 8.45399 105.125 7.67258 106.453 7.67258C107.635 7.67258 108.764 8.27997 109.332 8.83859L109.775 7.7474C109.007 6.99038 107.788 6.43231 106.443 6.43231C104.484 6.43231 103.139 7.72246 103.139 9.85497C103.139 11.517 103.97 12.6702 105.893 12.9673L106.985 13.1286C108.294 13.327 108.944 13.972 108.944 15.0632C108.944 16.5141 107.888 17.2456 106.353 17.2456C104.89 17.2456 103.988 16.6382 103.328 15.9311L102.85 16.9851C103.834 18.027 105.107 18.4737 106.344 18.4737C108.529 18.4737 110 17.1957 110 14.9762C110 13.1286 108.99 12.1244 107.211 11.839ZM49.9514 4.16496H53.8685V18.2868H56.3887V4.16496H60.3058V0.930725H49.9514V4.16496ZM23.226 0.930725H20.0662L15.8881 7.96059H14.697V0.930725H12.1768V18.2868H14.697V11.1466H15.8607L20.3568 18.2868H23.6246L17.9269 9.39704L23.226 0.930725ZM6.47 8.08517L5.75783 7.92334C4.2407 7.58917 3.14966 7.17907 3.14966 5.91497C3.14966 4.59933 4.16041 3.83122 5.56698 3.83122C6.80126 3.83122 7.88948 4.33387 8.81994 5.04046L10.3419 2.48122C8.74448 1.17888 7.29272 0.631348 5.51453 0.631348C2.82364 0.631348 0.476524 2.51558 0.476524 6.13553C0.476524 9.2872 2.10139 10.6134 4.33109 11.1094L5.13323 11.2812C6.89366 11.6774 7.81645 12.1119 7.81645 13.3172C7.81645 14.6534 6.74074 15.4115 5.33376 15.4115C3.82188 15.4115 2.45041 14.6567 1.5248 13.7617L0 16.3309C1.35412 17.8294 3.40063 18.5975 5.32408 18.5975C8.04241 18.5975 10.4977 16.7615 10.4977 12.9448C10.4977 9.93116 8.73722 8.58116 6.47 8.08517ZM29.5723 15.1151C27.3575 15.1151 25.5632 12.6506 25.5632 9.60816C25.5632 6.56955 27.3575 4.1012 29.5723 4.1012C31.785 4.1012 33.5793 6.56955 33.5793 9.60816C33.5793 12.6506 31.785 15.1151 29.5723 15.1151ZM29.5726 0.608154C25.9517 0.608154 23.0175 4.6382 23.0175 9.60815C23.0175 14.5787 25.9517 18.6082 29.5726 18.6082C33.1915 18.6082 36.1257 14.5787 36.1257 9.60815C36.1257 4.6382 33.1915 0.608154 29.5726 0.608154ZM46.1643 11.1849C46.1643 14.0228 44.9804 15.2869 43.2478 15.2869C41.5148 15.2869 40.3334 14.0228 40.3334 11.1849V0.930725H37.8059V11.3566C37.8059 16.1548 40.0352 18.5971 43.2478 18.5971C46.4629 18.5971 48.6918 16.1548 48.6918 11.3566V0.930725H46.1643V11.1849Z" fill="#B2B2B2"/>
</svg>
