<svg width="114" height="18" viewBox="0 0 114 18" fill="none" xmlns="http://www.w3.org/2000/svg">
<path fill-rule="evenodd" clip-rule="evenodd" d="M66.6167 14.0638H67.4669V0H66.6167V14.0638ZM73.0696 13.1655C71.496 13.1655 70.2956 11.6125 70.2956 9.47378C70.2956 7.33503 71.496 5.77243 73.0696 5.77243C74.6506 5.77243 75.851 7.33503 75.851 9.47378C75.851 11.6125 74.6506 13.1655 73.0696 13.1655V13.1655ZM73.0691 4.72754C70.9886 4.72754 69.4303 6.76852 69.4303 9.47383C69.4303 12.1695 70.9886 14.2105 73.0691 14.2105C75.1496 14.2105 76.7229 12.1695 76.7229 9.47383C76.7229 6.76852 75.1496 4.72754 73.0691 4.72754V4.72754ZM88.6707 8.98541L87.7759 8.84879C86.6945 8.68292 86.1799 8.22331 86.1799 7.36432C86.1799 6.31938 86.9481 5.70395 88.0441 5.70395C89.0209 5.70395 89.953 6.18276 90.4229 6.62186L90.7882 5.76287C90.1543 5.16664 89.1479 4.72754 88.0368 4.72754C86.4189 4.72754 85.3078 5.74323 85.3078 7.42281C85.3078 8.73181 85.9936 9.63969 87.5819 9.87452L88.484 10.0015C89.5654 10.1574 90.1023 10.6654 90.1023 11.5248C90.1023 12.6676 89.2299 13.2437 87.9625 13.2437C86.7541 13.2437 86.0083 12.7653 85.4641 12.2084L85.0689 13.039C85.8817 13.8587 86.9331 14.2105 87.9548 14.2105C89.7591 14.2105 90.9748 13.2044 90.9748 11.4563C90.9748 10.0015 90.1396 9.21019 88.6707 8.98541V8.98541ZM95.8141 13.1655C94.2181 13.1655 93.0774 11.554 93.0774 9.47378C93.0774 7.40312 94.2035 5.77243 95.8141 5.77243C97.4024 5.77243 98.5431 7.36427 98.5431 9.47378C98.5431 11.5833 97.4024 13.1655 95.8141 13.1655V13.1655ZM98.4982 6.64151C97.9314 5.4988 96.9993 4.72754 95.7166 4.72754C93.7484 4.72754 92.2121 6.73884 92.2121 9.47383C92.2121 12.2084 93.7484 14.2105 95.7166 14.2105C96.9993 14.2105 97.9314 13.4585 98.4982 12.2961V14.0639H99.3407V4.87376H98.4982V6.64151ZM113.068 4.87375L110.421 10.9194L107.595 4.87375H106.64L109.936 12.0133L107.252 18H108.191L114 4.87375H113.068ZM102.434 6.43676V4.87373H101.599V14.0638H102.442V8.878C102.442 7.03212 103.277 5.78204 104.447 5.78204C104.873 5.78204 105.342 5.90906 105.693 6.15349L105.909 5.06927C105.528 4.82528 105.104 4.71747 104.596 4.71747C103.665 4.71747 102.889 5.35255 102.434 6.43676V6.43676ZM81.5423 8.98541L80.6472 8.84879C79.5661 8.68292 79.0516 8.22331 79.0516 7.36432C79.0516 6.31938 79.82 5.70395 80.9161 5.70395C81.8929 5.70395 82.8246 6.18276 83.2945 6.62186L83.6601 5.76287C83.0263 5.16664 82.0192 4.72754 80.9084 4.72754C79.2902 4.72754 78.1794 5.74323 78.1794 7.42281C78.1794 8.73181 78.8656 9.63969 80.4535 9.87452L81.3557 10.0015C82.4367 10.1574 82.9739 10.6654 82.9739 11.5248C82.9739 12.6676 82.1015 13.2437 80.8341 13.2437C79.6261 13.2437 78.8803 12.7653 78.3361 12.2084L77.9408 13.039C78.7536 13.8587 79.8047 14.2105 80.8261 14.2105C82.6307 14.2105 83.8464 13.2044 83.8464 11.4563C83.8464 10.0015 83.0113 9.21019 81.5423 8.98541V8.98541ZM19.1828 0.394104H16.5731L13.1222 5.93086H12.1385V0.394104H10.057V14.0638H12.1385V8.44018H13.0996L16.813 14.0638H19.512L14.8062 7.06222L19.1828 0.394104ZM24.4241 11.5659C22.5949 11.5659 21.1129 9.62485 21.1129 7.22857C21.1129 4.83535 22.5949 2.89127 24.4241 2.89127C26.2516 2.89127 27.7336 4.83535 27.7336 7.22857C27.7336 9.62485 26.2516 11.5659 24.4241 11.5659V11.5659ZM24.4248 0.140106C21.4342 0.140106 19.0108 3.31419 19.0108 7.22855C19.0108 11.1433 21.4342 14.317 24.4248 14.317C27.4138 14.317 29.8372 11.1433 29.8372 7.22855C29.8372 3.31419 27.4138 0.140106 24.4248 0.140106V0.140106ZM5.34372 6.02867L4.75553 5.90122C3.50249 5.63802 2.60138 5.31502 2.60138 4.31941C2.60138 3.28321 3.43618 2.67825 4.5979 2.67825C5.61732 2.67825 6.5161 3.07457 7.28459 3.63065L8.54162 1.61498C7.22227 0.589686 6.02322 0.158007 4.55457 0.158007C2.33211 0.158007 0.393572 1.64204 0.393572 4.49313C0.393572 6.9754 1.73558 8.01989 3.57714 8.41054L4.23965 8.54629C5.69364 8.85794 6.45579 9.20014 6.45579 10.1495C6.45579 11.2023 5.56733 11.7989 4.40528 11.7989C3.15658 11.7989 2.02385 11.2045 1.25936 10.4995L0 12.5231C1.1184 13.7033 2.80866 14.3083 4.39728 14.3083C6.64241 14.3083 8.67025 12.8622 8.67025 9.8566C8.67025 7.48259 7.21627 6.41932 5.34372 6.02867V6.02867ZM41.2562 2.94184H44.4914V14.0638H46.5729V2.94184H49.8081V0.394104H41.2562V2.94184ZM38.1275 8.4703C38.1275 10.7055 37.1501 11.7011 35.7191 11.7011C34.2878 11.7011 33.312 10.7055 33.312 8.4703V0.394104H31.2245V8.60561C31.2245 12.3847 33.0657 14.3082 35.7191 14.3082C38.3745 14.3082 40.2153 12.3847 40.2153 8.60561V0.394104H38.1275V8.4703ZM60.1081 6.85621V7.96967H63.6426C63.501 11.0949 61.9947 13.0678 59.6086 13.0678C57.1852 13.0678 55.2536 10.7138 55.2536 7.22766C55.2536 3.74105 57.1779 1.38711 59.6533 1.38711C61.0326 1.38711 62.2186 2.15881 63.0238 3.41893L63.6946 2.5691C62.7329 1.11344 61.3012 0.234802 59.6533 0.234802C56.6183 0.234802 54.3069 3.11601 54.3069 7.22766C54.3069 11.5737 56.8273 14.2105 59.6086 14.2105C62.7032 14.2105 64.6417 11.2027 64.6417 7.17877V7.03211C64.6417 6.98323 64.6344 6.92474 64.6267 6.85621H60.1081Z" fill="#B2B2B2"/>
</svg>
