<svg width="28" height="29" viewBox="0 0 28 29" fill="none" xmlns="http://www.w3.org/2000/svg">
<g filter="url(#filter0_d)">
<path d="M14.0703 18.7417C17.9363 18.7417 21.0703 15.6077 21.0703 11.7417C21.0703 7.87571 17.9363 4.7417 14.0703 4.7417C10.2043 4.7417 7.07031 7.87571 7.07031 11.7417C7.07031 15.6077 10.2043 18.7417 14.0703 18.7417Z" fill="white"/>
<path d="M14.0703 18.7417C17.9363 18.7417 21.0703 15.6077 21.0703 11.7417C21.0703 7.87571 17.9363 4.7417 14.0703 4.7417C10.2043 4.7417 7.07031 7.87571 7.07031 11.7417C7.07031 15.6077 10.2043 18.7417 14.0703 18.7417Z" stroke="#37E63E" stroke-width="1.5"/>
</g>
<path d="M10.6719 11.9167H17.6255" stroke="#37E63E" stroke-width="1.5" stroke-linecap="round"/>
<path d="M14.2969 8.34167V15.2953" stroke="#37E63E" stroke-width="1.5" stroke-linecap="round"/>
<defs>
<filter id="filter0_d" x="0.320312" y="0.991699" width="27.5" height="27.5" filterUnits="userSpaceOnUse" color-interpolation-filters="sRGB">
<feFlood flood-opacity="0" result="BackgroundImageFix"/>
<feColorMatrix in="SourceAlpha" type="matrix" values="0 0 0 0 0 0 0 0 0 0 0 0 0 0 0 0 0 0 127 0"/>
<feOffset dy="3"/>
<feGaussianBlur stdDeviation="3"/>
<feColorMatrix type="matrix" values="0 0 0 0 0.498039 0 0 0 0 0.498039 0 0 0 0 0.498039 0 0 0 0.3 0"/>
<feBlend mode="normal" in2="BackgroundImageFix" result="effect1_dropShadow"/>
<feBlend mode="normal" in="SourceGraphic" in2="effect1_dropShadow" result="shape"/>
</filter>
</defs>
</svg>
