<svg width="90" height="19" viewBox="0 0 90 19" fill="none" xmlns="http://www.w3.org/2000/svg">
<path fill-rule="evenodd" clip-rule="evenodd" d="M69.8564 14.5411H70.7855V4.94336H69.8564V14.5411ZM45.0674 2.92545H48.6015V14.5406H50.8753V2.92545H54.4094V0.265287H45.0674V2.92545ZM59.2764 1.44541H63.382V14.5411H64.3759V1.44541H68.4892V0.262103H59.2764V1.44541ZM87.4834 9.23719L86.5056 9.09497C85.3246 8.9213 84.7625 8.44224 84.7625 7.54427C84.7625 6.45304 85.6017 5.81079 86.799 5.81079C87.866 5.81079 88.8842 6.30991 89.3975 6.76892L89.7961 5.87187C89.1041 5.24968 88.0043 4.79067 86.791 4.79067C85.0232 4.79067 83.8095 5.85136 83.8095 7.60535C83.8095 8.9719 84.559 9.92092 86.2937 10.1657L87.2795 10.2979C88.4608 10.4615 89.0473 10.9916 89.0473 11.8891C89.0473 13.0825 88.0942 13.6842 86.7094 13.6842C85.3898 13.6842 84.5754 13.1846 83.9806 12.6034L83.5488 13.4699C84.4367 14.3269 85.5853 14.6943 86.7011 14.6943C88.6723 14.6943 90.0004 13.6436 90.0004 11.8176C90.0004 10.2979 89.0881 9.47193 87.4834 9.23719ZM70.3211 0.649537C69.9385 0.649537 69.6611 1.01693 69.6611 1.49599C69.6611 1.97552 69.9385 2.32239 70.3211 2.32239C70.7037 2.32239 70.9888 1.97552 70.9888 1.49599C70.9888 1.01693 70.7037 0.649537 70.3211 0.649537ZM78.3194 13.6026C76.5924 13.6026 75.3379 11.9507 75.3379 9.74724C75.3379 7.54427 76.5924 5.88189 78.3194 5.88189C80.0704 5.88189 81.3085 7.58483 81.3085 9.74724C81.3085 11.9201 80.0788 13.6026 78.3194 13.6026ZM78.4252 4.79067C77.0324 4.79067 76.0141 5.58653 75.4033 6.76892V4.94337H74.4746V18.6207H75.4033V12.7151C76.0221 13.9089 77.0324 14.6943 78.4252 14.6943C80.5759 14.6943 82.2618 12.6034 82.2618 9.74725C82.2618 6.89199 80.5759 4.79067 78.4252 4.79067ZM20.9552 0.265287H18.1044L14.3348 6.04736H13.2601V0.265287H10.9863V14.5406H13.2601V8.66787H14.31L18.3665 14.5406H21.3149L16.1743 7.22884L20.9552 0.265287ZM41.6501 8.69932C41.6501 11.0336 40.5824 12.0733 39.0192 12.0733C37.4556 12.0733 36.3897 11.0336 36.3897 8.69932V0.265287H34.1094V8.84062C34.1094 12.7871 36.1207 14.7959 39.0192 14.7959C41.9199 14.7959 43.9308 12.7871 43.9308 8.84062V0.265287H41.6501V8.69932ZM26.6806 11.932C24.6824 11.932 23.0635 9.90496 23.0635 7.40251C23.0635 4.90325 24.6824 2.87303 26.6806 2.87303C28.677 2.87303 30.2959 4.90325 30.2959 7.40251C30.2959 9.90496 28.677 11.932 26.6806 11.932ZM26.6808 0C23.4139 0 20.7666 3.31472 20.7666 7.40251C20.7666 11.4908 23.4139 14.805 26.6808 14.805C29.9459 14.805 32.5932 11.4908 32.5932 7.40251C32.5932 3.31472 29.9459 0 26.6808 0ZM5.8374 6.14882L5.19487 6.01572C3.82607 5.74087 2.8417 5.40402 2.8417 4.36429C2.8417 3.28172 3.75363 2.64995 5.02267 2.64995C6.13628 2.64995 7.11809 3.06384 7.95757 3.64455L9.33074 1.53958C7.8895 0.468857 6.57968 0.018507 4.97535 0.018507C2.54756 0.018507 0.429932 1.56784 0.429932 4.54525C0.429932 7.1375 1.89593 8.22827 3.90762 8.63623L4.63133 8.77754C6.21964 9.10345 7.0522 9.46081 7.0522 10.4522C7.0522 11.5512 6.08167 12.1748 4.81226 12.1748C3.4482 12.1748 2.21082 11.5539 1.37571 10.8178L0 12.931C1.22172 14.1635 3.06814 14.7953 4.80352 14.7953C7.25607 14.7953 9.47126 13.2851 9.47126 10.1459C9.47126 7.66716 7.88294 6.55678 5.8374 6.14882Z" fill="#B2B2B2"/>
</svg>
