<svg width="264" height="296" viewBox="0 0 264 296" fill="none" xmlns="http://www.w3.org/2000/svg">
<g opacity="0.4">
<path fill-rule="evenodd" clip-rule="evenodd" d="M132.265 93.291C100.202 93.291 74.2266 119.13 74.2266 151.02C74.2266 169.239 82.7002 185.495 95.9534 196.048C98.2082 183.487 106.868 173.188 118.449 168.546L132.289 184.964L146.079 168.5C157.663 173.165 166.32 183.487 168.598 196.025C181.831 185.472 190.304 169.239 190.304 151.02C190.304 119.13 164.326 93.291 132.265 93.291Z" stroke="#1A1A1A" stroke-width="2" stroke-linecap="round" stroke-linejoin="round"/>
<path fill-rule="evenodd" clip-rule="evenodd" d="M151.293 137.058C151.293 126.548 142.773 118.029 132.264 118.029C121.751 118.029 113.234 126.548 113.234 137.058C113.234 147.568 121.751 156.088 132.264 156.088C142.773 156.088 151.293 147.568 151.293 137.058Z" stroke="#1A1A1A" stroke-width="2" stroke-linecap="round" stroke-linejoin="round"/>
<path d="M39.9727 222.689L115.138 265.505" stroke="#B2B2B2" stroke-width="2" stroke-linecap="round" stroke-linejoin="round"/>
<path d="M21.4194 104.709V191.292" stroke="#B2B2B2" stroke-width="2" stroke-linecap="round" stroke-linejoin="round"/>
<path d="M243.107 104.709V191.292" stroke="#B2B2B2" stroke-width="2" stroke-linecap="round" stroke-linejoin="round"/>
<path d="M115.138 31.4468L39.9727 74.2623" stroke="#B2B2B2" stroke-width="2" stroke-linecap="round" stroke-linejoin="round"/>
<path d="M224.556 74.2623L149.391 31.4468" stroke="#B2B2B2" stroke-width="2" stroke-linecap="round" stroke-linejoin="round"/>
<path d="M149.391 265.505L224.556 222.689" stroke="#B2B2B2" stroke-width="2" stroke-linecap="round" stroke-linejoin="round"/>
<path fill-rule="evenodd" clip-rule="evenodd" d="M153.194 20.9792C153.194 9.94444 144.034 1 132.738 1C121.438 1 112.281 9.94444 112.281 20.9792C112.281 32.0139 121.438 40.9612 132.738 40.9612C144.034 40.9612 153.194 32.0139 153.194 20.9792Z" stroke="#B2B2B2" stroke-width="2" stroke-linecap="round" stroke-linejoin="round"/>
<path fill-rule="evenodd" clip-rule="evenodd" d="M32.5981 67.4269C22.8145 61.9109 10.3054 65.185 4.65828 74.7386C-0.991749 84.2949 2.36314 96.5135 12.1468 102.029C21.9245 107.545 34.4366 104.271 40.0837 94.7177C45.7308 85.1614 42.3788 72.9428 32.5981 67.4269Z" stroke="#B2B2B2" stroke-width="2" stroke-linecap="round" stroke-linejoin="round"/>
<path fill-rule="evenodd" clip-rule="evenodd" d="M12.1455 193.97C2.36184 199.486 -0.990122 211.705 4.65698 221.258C10.3041 230.815 22.8161 234.089 32.5968 228.573C42.3775 223.054 45.7324 210.838 40.0824 201.282C34.4353 191.728 21.9262 188.454 12.1455 193.97Z" stroke="#B2B2B2" stroke-width="2" stroke-linecap="round" stroke-linejoin="round"/>
<path fill-rule="evenodd" clip-rule="evenodd" d="M112.281 275.02C112.281 286.055 121.443 295 132.738 295C144.038 295 153.194 286.055 153.194 275.02C153.194 263.985 144.038 255.039 132.738 255.039C121.443 255.039 112.281 263.985 112.281 275.02Z" stroke="#B2B2B2" stroke-width="2" stroke-linecap="round" stroke-linejoin="round"/>
<path fill-rule="evenodd" clip-rule="evenodd" d="M231.929 228.573C241.713 234.089 254.219 230.815 259.869 221.258C265.516 211.705 262.164 199.486 252.38 193.97C242.6 188.454 230.091 191.728 224.441 201.282C218.797 210.838 222.146 223.054 231.929 228.573Z" stroke="#B2B2B2" stroke-width="2" stroke-linecap="round" stroke-linejoin="round"/>
<path fill-rule="evenodd" clip-rule="evenodd" d="M252.382 102.029C262.165 96.5135 265.514 84.2949 259.87 74.7386C254.22 65.185 241.711 61.9109 231.931 67.4269C222.147 72.9428 218.795 85.1614 224.442 94.7177C230.092 104.271 242.598 107.545 252.382 102.029Z" stroke="#B2B2B2" stroke-width="2" stroke-linecap="round" stroke-linejoin="round"/>
</g>
</svg>
