<svg width="205" height="274" viewBox="0 0 205 274" fill="none" xmlns="http://www.w3.org/2000/svg">
<g opacity="0.4">
<path d="M25.5988 222.116V50.0342" stroke="#B2B2B2" stroke-width="2" stroke-linecap="round" stroke-linejoin="round"/>
<path d="M180.584 253.53V261.3C180.584 267.736 175.343 272.953 168.877 272.953H36.2C29.7375 272.953 24.4961 267.736 24.4961 261.3V253.53" stroke="#B2B2B2" stroke-width="2" stroke-linecap="round" stroke-linejoin="round"/>
<path d="M180.583 51.8848V222.456" stroke="#B2B2B2" stroke-width="2" stroke-linecap="round" stroke-linejoin="round"/>
<path d="M24.4961 19.7855V12.7C24.4961 6.26379 29.7375 1.04639 36.2033 1.04639H168.88C175.343 1.04639 180.584 6.26379 180.584 12.7V21.1547" stroke="#B2B2B2" stroke-width="2" stroke-linecap="round" stroke-linejoin="round"/>
<path fill-rule="evenodd" clip-rule="evenodd" d="M105.751 253.533C105.751 251.767 104.315 250.334 102.538 250.334C100.764 250.334 99.3242 251.767 99.3242 253.533C99.3242 255.299 100.764 256.732 102.538 256.732C104.315 256.732 105.751 255.299 105.751 253.533Z" stroke="#B2B2B2" stroke-width="2" stroke-linecap="round" stroke-linejoin="round"/>
<path d="M47.9074 237.994H1.08203V191.38" stroke="#1A1A1A" stroke-width="2" stroke-linecap="round" stroke-linejoin="round"/>
<path d="M1.08203 82.6185V36.0073H47.9074" stroke="#1A1A1A" stroke-width="2" stroke-linecap="round" stroke-linejoin="round"/>
<path d="M157.172 36.0063H203.997V82.6175" stroke="#1A1A1A" stroke-width="2" stroke-linecap="round" stroke-linejoin="round"/>
<path d="M203.997 191.381V237.995H157.172" stroke="#1A1A1A" stroke-width="2" stroke-linecap="round" stroke-linejoin="round"/>
<path d="M102.54 105.011V168.989" stroke="#1A1A1A" stroke-width="2" stroke-linecap="round" stroke-linejoin="round"/>
<path d="M134.674 137H70.4023" stroke="#1A1A1A" stroke-width="2" stroke-linecap="round" stroke-linejoin="round"/>
</g>
</svg>
