<svg width="227" height="226" viewBox="0 0 227 226" fill="none" xmlns="http://www.w3.org/2000/svg">
<g id="Group 26" opacity="0.400995">
<path id="Stroke 1" d="M24.4963 134.743V179.032" stroke="#B2B2B2" stroke-width="2" stroke-linecap="round" stroke-linejoin="round"/>
<path id="Stroke 2" d="M98.1703 185.845L40.2539 127.929" stroke="#B2B2B2" stroke-width="2" stroke-linecap="round" stroke-linejoin="round"/>
<path id="Stroke 3" d="M180.785 201.602H136.496" stroke="#B2B2B2" stroke-width="2" stroke-linecap="round" stroke-linejoin="round"/>
<path id="Stroke 4" d="M129.684 39.3511L187.6 97.2674" stroke="#B2B2B2" stroke-width="2" stroke-linecap="round" stroke-linejoin="round"/>
<path id="Stroke 5" d="M47.0664 23.5945H91.3554" stroke="#B2B2B2" stroke-width="2" stroke-linecap="round" stroke-linejoin="round"/>
<path id="Stroke 6" d="M202.504 134.743V179.032" stroke="#B2B2B2" stroke-width="2" stroke-linecap="round" stroke-linejoin="round"/>
<g id="Group 25">
<path id="Stroke 7" fill-rule="evenodd" clip-rule="evenodd" d="M46.5847 23.3383C46.5847 35.6616 36.5894 45.6531 24.2552 45.6531C11.9238 45.6531 1.92578 35.6616 1.92578 23.3383C1.92578 11.0149 11.9238 1.02344 24.2552 1.02344C36.5894 1.02344 46.5847 11.0149 46.5847 23.3383Z" stroke="#1A1A1A" stroke-width="2" stroke-linecap="round" stroke-linejoin="round"/>
<path id="Stroke 9" fill-rule="evenodd" clip-rule="evenodd" d="M135.901 23.3383C135.901 35.6616 125.906 45.6531 113.572 45.6531C101.24 45.6531 91.2422 35.6616 91.2422 23.3383C91.2422 11.0149 101.24 1.02344 113.572 1.02344C125.906 1.02344 135.901 11.0149 135.901 23.3383Z" stroke="#1A1A1A" stroke-width="2" stroke-linecap="round" stroke-linejoin="round"/>
<path id="Stroke 11" fill-rule="evenodd" clip-rule="evenodd" d="M225.217 23.3383C225.217 35.6616 215.222 45.6531 202.888 45.6531C190.557 45.6531 180.559 35.6616 180.559 23.3383C180.559 11.0149 190.557 1.02344 202.888 1.02344C215.222 1.02344 225.217 11.0149 225.217 23.3383Z" stroke="#1A1A1A" stroke-width="2" stroke-linecap="round" stroke-linejoin="round"/>
<path id="Stroke 13" fill-rule="evenodd" clip-rule="evenodd" d="M46.5847 112.598C46.5847 124.921 36.5894 134.913 24.2552 134.913C11.9238 134.913 1.92578 124.921 1.92578 112.598C1.92578 100.275 11.9238 90.2832 24.2552 90.2832C36.5894 90.2832 46.5847 100.275 46.5847 112.598Z" stroke="#1A1A1A" stroke-width="2" stroke-linecap="round" stroke-linejoin="round"/>
<path id="Stroke 15" fill-rule="evenodd" clip-rule="evenodd" d="M135.901 112.598C135.901 124.921 125.906 134.913 113.572 134.913C101.24 134.913 91.2422 124.921 91.2422 112.598C91.2422 100.275 101.24 90.2832 113.572 90.2832C125.906 90.2832 135.901 100.275 135.901 112.598Z" stroke="#1A1A1A" stroke-width="2" stroke-linecap="round" stroke-linejoin="round"/>
<path id="Stroke 17" fill-rule="evenodd" clip-rule="evenodd" d="M225.217 112.598C225.217 124.921 215.222 134.913 202.888 134.913C190.557 134.913 180.559 124.921 180.559 112.598C180.559 100.275 190.557 90.2832 202.888 90.2832C215.222 90.2832 225.217 100.275 225.217 112.598Z" stroke="#1A1A1A" stroke-width="2" stroke-linecap="round" stroke-linejoin="round"/>
<path id="Stroke 19" fill-rule="evenodd" clip-rule="evenodd" d="M46.5847 201.857C46.5847 214.181 36.5894 224.172 24.2552 224.172C11.9238 224.172 1.92578 214.181 1.92578 201.857C1.92578 189.534 11.9238 179.542 24.2552 179.542C36.5894 179.542 46.5847 189.534 46.5847 201.857Z" stroke="#1A1A1A" stroke-width="2" stroke-linecap="round" stroke-linejoin="round"/>
<path id="Stroke 21" fill-rule="evenodd" clip-rule="evenodd" d="M135.901 201.857C135.901 214.181 125.906 224.172 113.572 224.172C101.24 224.172 91.2422 214.181 91.2422 201.857C91.2422 189.534 101.24 179.542 113.572 179.542C125.906 179.542 135.901 189.534 135.901 201.857Z" stroke="#1A1A1A" stroke-width="2" stroke-linecap="round" stroke-linejoin="round"/>
<path id="Stroke 23" fill-rule="evenodd" clip-rule="evenodd" d="M225.217 201.857C225.217 214.181 215.222 224.172 202.888 224.172C190.557 224.172 180.559 214.181 180.559 201.857C180.559 189.534 190.557 179.542 202.888 179.542C215.222 179.542 225.217 189.534 225.217 201.857Z" stroke="#1A1A1A" stroke-width="2" stroke-linecap="round" stroke-linejoin="round"/>
</g>
</g>
</svg>
